# xmcd
#
# Track frame offsets:
#	183
#	20015
#	41418
#
# Disc length: 1033 seconds
#
# Revision: 1
# Processed by: cddbd v1.5.2PL0 Copyright (c) Steve Scherf et al.
# Submitted via: audiograbber 1.83.01
#
DISCID=1c040703
DTITLE=Dina Carroll - Don't Be A Stranger
DYEAR=1993
DGENRE=Ballad
TTITLE0=Don't Be A Stranger (LP Version)
TTITLE1=Don't Be A Stranger (Remix)
TTITLE2=Born To Be (Your Lover) (Nigel Lowis Mix)
EXTD=
EXTT0=
EXTT1=
EXTT2=
PLAYORDER=
